<?xml version="1.0"?>
<svg xmlns="http://www.w3.org/2000/svg" 
 xmlns:svg="http://www.w3.org/2000/svg" 
 width="16" height="16" 
 viewBox="0 0 24 24">
 <metadata id="metadata3054">image/svg+xml</metadata>
 <g>
  <title>Layer 1</title>
  <g stroke="null" id="layer1">
   <path fill="#4d4d4d" stroke-width="0.1" stroke-miterlimit="4" id="rect4145" d="m0.199999,0.2l0,23.600003l1.475,0l7.374999,0l0,-1.474997l-7.374999,0l0,-20.650006l14.75,0l0,5.900001l1.474998,0l0,-7.375001l-16.224998,0l-1.475,0zm2.95,2.950001l0,5.9l5.899999,0l0,-5.9l-5.899999,0zm7.375,0l0,1.474999l4.424998,0l0,-1.474999l-4.424998,0zm0,2.950001l0,1.475l4.424998,0l0,-1.475l-4.424998,0zm0,2.949999l0,1.474999l0,13.275003l1.474998,0l11.8,0l0,-2.950001l0,-11.800002l-11.8,0l-1.474998,0zm1.474998,1.474999l10.325,0l0,5.900002l-1.474997,-1.474998l-2.950003,2.949996l-1.474998,-1.474998l-4.425002,4.425001l0,-10.325003zm-8.849998,1.475002l0,1.475l5.899999,0l0,-1.475l-5.899999,0zm11.799998,0c-0.817126,0 -1.474998,0.657825 -1.474998,1.475c0,0.817173 0.657871,1.475001 1.474998,1.475001c0.81713,0 1.475002,-0.657828 1.475002,-1.475001c0,-0.817175 -0.657872,-1.475 -1.475002,-1.475zm-11.799998,2.950002l0,1.474998l5.899999,0l0,-1.474998l-5.899999,0zm0,2.949996l0,1.475002l5.899999,0l0,-1.475002l-5.899999,0z"/>
  </g>
 </g>
</svg>