<?xml version="1.0" encoding="UTF-8" standalone="no"?>
<!-- Created with Inkscape (http://www.inkscape.org/) -->

<svg
   xmlns:dc="http://purl.org/dc/elements/1.1/"
   xmlns:cc="http://creativecommons.org/ns#"
   xmlns:rdf="http://www.w3.org/1999/02/22-rdf-syntax-ns#"
   xmlns:svg="http://www.w3.org/2000/svg"
   xmlns="http://www.w3.org/2000/svg"
   xmlns:sodipodi="http://sodipodi.sourceforge.net/DTD/sodipodi-0.dtd"
   xmlns:inkscape="http://www.inkscape.org/namespaces/inkscape"
   width="24"
   height="24"
   id="svg2"
   version="1.1"
   inkscape:version="0.48.5 r10040"
   viewBox="0 0 24 24"
   sodipodi:docname="lc_setdocumentproperties.svg">
  <defs
     id="defs4" />
  <sodipodi:namedview
     id="base"
     pagecolor="#ffffff"
     bordercolor="#666666"
     borderopacity="1.0"
     inkscape:pageopacity="0.0"
     inkscape:pageshadow="2"
     inkscape:zoom="23.818263"
     inkscape:cx="13.347505"
     inkscape:cy="13.153688"
     inkscape:document-units="px"
     inkscape:current-layer="layer1"
     showgrid="true"
     inkscape:showpageshadow="false"
     borderlayer="true"
     inkscape:window-width="1362"
     inkscape:window-height="729"
     inkscape:window-x="0"
     inkscape:window-y="18"
     inkscape:window-maximized="0"
     units="px"
     fit-margin-top="0"
     fit-margin-left="0"
     fit-margin-right="0"
     fit-margin-bottom="0"
     inkscape:snap-global="false"
     showguides="false">
    <sodipodi:guide
       position="3,21"
       orientation="18,0"
       id="guide4085" />
    <sodipodi:guide
       position="3,3"
       orientation="0,18"
       id="guide4087" />
    <sodipodi:guide
       position="21,3"
       orientation="-18,0"
       id="guide4089" />
    <sodipodi:guide
       position="21,21"
       orientation="0,-18"
       id="guide4091" />
    <sodipodi:guide
       position="4,20"
       orientation="16,0"
       id="guide4093" />
    <sodipodi:guide
       position="4,4"
       orientation="0,16"
       id="guide4095" />
    <sodipodi:guide
       position="20,4"
       orientation="-16,0"
       id="guide4097" />
    <sodipodi:guide
       position="20,20"
       orientation="0,-16"
       id="guide4099" />
    <inkscape:grid
       type="xygrid"
       id="grid4101"
       originx="1px"
       originy="0.99998262px" />
    <sodipodi:guide
       position="4,20"
       orientation="16,0"
       id="guide4123" />
    <sodipodi:guide
       position="4,4"
       orientation="0,2.000001"
       id="guide4125" />
    <sodipodi:guide
       position="5,20"
       orientation="-16,0"
       id="guide4127" />
    <sodipodi:guide
       position="6.000001,20"
       orientation="0,-2.000001"
       id="guide4129" />
    <sodipodi:guide
       position="19,20"
       orientation="16,0"
       id="guide4131" />
    <sodipodi:guide
       position="18,4"
       orientation="0,2"
       id="guide4133" />
    <sodipodi:guide
       position="20,4"
       orientation="-16,0"
       id="guide4135" />
    <sodipodi:guide
       position="20,20"
       orientation="0,-2"
       id="guide4137" />
  </sodipodi:namedview>
  <metadata
     id="metadata7">
    <rdf:RDF>
      <cc:Work
         rdf:about="">
        <dc:format>image/svg+xml</dc:format>
        <dc:type
           rdf:resource="http://purl.org/dc/dcmitype/StillImage" />
        <dc:title></dc:title>
      </cc:Work>
    </rdf:RDF>
  </metadata>
  <g
     inkscape:label="Capa 1"
     inkscape:groupmode="layer"
     id="layer1"
     transform="translate(1,-1029.3622)">
    <path
       style="fill:#4d4d4d;fill-opacity:1;stroke:none"
       d="m 0.53821872,1029.4015 0,0 0,23.9995 1.49997548,0 11.9998028,0 1.499976,0 0,-0.014 0.01176,0.014 5.988184,-5.9881 0,-0.014 0,-2.1094 0,-15.8904 -1.499975,0 -17.9997054,0 -1.49997548,0 z m 1.49997548,1.5029 17.9997058,0 0,14.9998 -5.999903,0 0,1.4999 0,4.5 -11.9998028,0 0,-20.9997 z m 11.2498158,2.9999 c -0.978306,0 -1.802387,0.6281 -2.11227,1.5 l -7.6375705,0 0,1.5 7.6375705,0 c 0.309883,0.872 1.133964,1.4999 2.11227,1.4999 0.978307,0 1.802386,-0.6279 2.112269,-1.4999 l 3.137644,0 0,-1.5 -3.137644,0 c -0.309883,-0.8719 -1.133962,-1.5 -2.112269,-1.5 z m -4.4999263,6 a 2.2499631,2.2499631 0 0 0 -2.1181295,1.4999 l -3.1317847,0 0,1.5 3.1317847,0 a 2.2499631,2.2499631 0 0 0 2.1181295,1.4999 2.2499631,2.2499631 0 0 0 2.1181283,-1.4999 l 7.631711,0 0,-1.5 -7.631711,0 a 2.2499631,2.2499631 0 0 0 -2.1181283,-1.4999 z m 0,1.4999 a 0.74998771,0.74998771 0 0 1 0.7499875,0.7501 0.74998771,0.74998771 0 0 1 -0.7499875,0.7499 0.74998771,0.74998771 0 0 1 -0.7499878,-0.7499 0.74998771,0.74998771 0 0 1 0.7499878,-0.7501 z"
       id="rect4139"
       inkscape:connector-curvature="0" />
  </g>
</svg>
